<svg xmlns="http://www.w3.org/2000/svg" fill="currentColor" role="img" aria-label="WARP" viewBox="0 0 118.1 85"><path id="mark" fill="currentColor" d="M 27.0562,58.8738 25.3072,66.1624 7.7157,0 H 11.522 Z M 30.914,44.6558 29.0108,51.7392 15.3798,0 h 3.755 z M 34.7719,29.9246 32.8172,37.1105 22.9926,0 h 3.8578 z M 49.4316,85 H 45.5737 L 68.1034,0.1026 68.052,0 h 3.9092 V 0.1026 L 81.9916,34.5954 91.1989,0 h 3.8578 l -22.581,85 h -3.858 L 58.536,50.5585 Z m -7.7157,0 H 37.9096 L 60.4391,-1e-4 h 3.8063 z m -7.6642,0 H 30.2454 L 52.8263,-1e-4 h 3.755 z m 61.468,0 H 91.6618 L 114.1915,-1e-4 h 3.8578 z M 87.804,85 H 83.9977 L 106.5273,-1e-4 h 3.8064 z m -7.6642,0 H 76.3334 L 98.9146,-1e-4 h 3.7548 z M 24.4843,77.7114 45.1108,-1e-4 h 3.8578 L 26.3876,85.0001 H 22.5298 L 0,-1e-4 h 3.8578 z m 36.0063,-34.3901 9.979,34.698 1.9546,-7.34 L 62.3938,36.084 Z M 64.297,28.8467 74.3274,63.442 76.282,56.2046 66.2516,21.5578 Z m 3.8063,-14.372 10.082,34.5953 1.9031,-7.2886 -9.9788,-34.698 z"/></svg>
