<svg xmlns="http://www.w3.org/2000/svg" fill="currentColor" role="img" aria-label="WARP" viewBox="0 0 390 85"><path id="wordmark" fill="currentColor" d="m27.0562 58.8738-1.749 7.2886L7.7157 0h3.8063zm3.8578-14.218-1.9032 7.0834L15.3798 0h3.755zm3.8579-14.7312-1.9547 7.1859L22.9926 0h3.8578zM49.4316 85h-3.8579L68.1034.1026 68.052 0h3.9092v.1026l10.0304 34.4928L91.1989 0h3.8578l-22.581 85h-3.858L58.536 50.5585Zm-7.7157 0h-3.8063L60.4391-.0001h3.8063zm-7.6642 0h-3.8063L52.8263-.0001h3.755zm61.468 0h-3.8579L114.1915-.0001h3.8578zm-7.7157 0h-3.8063L106.5273-.0001h3.8064zm-7.6642 0h-3.8064L98.9146-.0001h3.7548zm-55.6555-7.2886L45.1108-.0001h3.8578l-22.581 85.0002h-3.8578L0-.0001h3.8578zm36.0063-34.3901 9.979 34.698 1.9546-7.34L62.3938 36.084zm3.8064-14.4746L74.3274 63.442l1.9546-7.2374-10.0304-34.6468zm3.8063-14.372L78.1853 49.07l1.9031-7.2886-9.9788-34.698zm89.6558 45.5796 1.4917-3.6956h12.6537l1.4917 3.6956zm-2.8805 7.3913 1.4403-3.6956h18.4661l1.5946 3.6956zm-2.8804 7.3914 1.4403-3.6957h24.2784l1.5432 3.6957zM121.9072 85h-4.0122L151.5867-.0001h4.012L189.239 85h-3.9606L153.5926 4.9789Zm32.1484-71.244 2.109 4.7223L129.8286 85h-3.9607zm4.115 9.7524 1.9547 5.0816L137.8528 85h-4.012zm3.9093 10.1632 1.9546 5.184L145.7742 85h-3.9607zM213.1575 85h-4.0122L175.5051-.0001h3.9607zM171.493-.0001 205.1847 85h-3.9607L167.5323-.0001Zm-7.9728 0L197.212 85h-4.0122L159.5595-.0001Zm84.1005 42.7055h22.324q5.0923 0 8.59-3.285 3.5492-3.2851 3.5492-9.3419 0-4.4655-3.7035-8.0072-3.7035-3.593-8.4359-3.593h-31.7884V85h-3.7035V14.7826h35.492q6.2754 0 11.0591 4.6709 4.7836 4.6196 4.7836 10.625 0 7.3913-4.6293 11.8569t-11.2134 4.4655h-22.3239zm0 7.3912h22.324q8.0242 0 13.7852-5.5948 5.761-5.6462 5.761-14.4233 0-7.5453-5.9153-13.2428-5.864-5.7487-13.631-5.7487h-39.1955V85h-3.7035V7.3913h42.899q6.121 0 11.4706 3.131 5.401 3.131 8.5901 8.418 3.189 5.2355 3.189 11.1382 0 10.1117-6.8926 16.9384-6.8412 6.7753-16.357 6.7753h-22.324zm0 7.3913h22.324q7.2011 0 13.3737-3.5416 6.1724-3.5417 9.876-9.8551 3.7035-6.3647 3.7035-14.0127 0-6.9293-3.7035-12.9861-3.6521-6.1081-9.876-9.7524t-13.3738-3.6443h-46.6025V85h-3.7035V-.0001h50.306q8.0757 0 15.1741 4.1577 7.0984 4.1062 11.2648 11.087 4.2179 6.9293 4.2179 14.834 0 9.1364-3.9606 16.0658-3.9094 6.9293-10.6476 10.8303L295.5605 85h-3.9093l-9.1558-26.2802q-2.0575.8213-3.1377 1.1293L287.9478 85h-3.9093l-8.3845-24.2784q-.4628.1027-3.292.3594L280.335 85h-3.9093l-7.87-23.8164h-3.3435L272.7222 85h-3.9093l-7.5613-23.8164h-13.631zM245.5632 85h-3.7036V22.1738h28.085q3.4463 0 5.9153 2.3612 2.5205 2.3097 2.5205 5.5434 0 8.9312-8.4359 8.9312h-22.3238v-3.6957h22.324q2.2117 0 3.4462-1.1293 1.286-1.1805 1.286-4.1062 0-1.7965-1.3889-2.977-1.3374-1.232-3.3435-1.232h-24.3814zm91.7647-40.2416h21.5008q5.2981 0 8.9502-3.5417 3.7035-3.593 3.7035-10.1116 0-4.8762-3.8578-8.726-3.8578-3.9008-8.7959-3.9008h-31.7884V85h-3.7035V14.7826h35.492q6.4812 0 11.4191 4.979t4.938 11.3435q0 7.8532-4.7837 12.6268-4.7837 4.7222-11.5735 4.7222H337.328zm0 7.3914h21.5008q5.3496 0 9.8761-2.5664 4.578-2.6178 7.3556-7.494 2.829-4.8762 2.829-10.9843 0-7.9046-6.0696-13.9615-6.0182-6.0566-13.991-6.0566h-39.1955V85h-3.7035V7.3913h42.899q6.224 0 11.7277 3.285 5.5039 3.285 8.7444 8.7772 3.292 5.4922 3.292 11.6516 0 6.9807-3.292 12.7294-3.292 5.6974-8.7444 8.8798-5.401 3.1311-11.7278 3.1311H337.328zm0 7.3913h21.5008q5.5039 0 10.5448-2.1558 5.041-2.2071 8.7444-5.9028 3.755-3.747 5.9667-9.0338 2.2118-5.3382 2.2118-11.3436 0-7.186-3.7549-13.4994-3.755-6.3649-10.1332-10.1118-6.3268-3.7982-13.5796-3.7982h-46.6024V85h-3.7034V-.0001h50.306q8.23 0 15.4313 4.3117 7.2012 4.2602 11.4705 11.4462 4.2694 7.186 4.2694 15.3473 0 7.2886-2.5205 13.448-2.5204 6.1082-6.7897 10.163t-9.9275 6.3135q-5.6582 2.207-11.9336 2.207h-21.501zM334.4474 85h-3.7036V22.1738h28.085q3.652 0 6.2753 2.669 2.6748 2.6692 2.6748 6.2622 0 9.9577-8.9502 9.9577H337.328V37.367h21.5008q2.469 0 3.858-1.3858t1.3887-4.8762q0-2.2584-1.5432-3.747-1.4916-1.4886-3.7035-1.4886h-24.3813z"/></svg>
