<svg xmlns="http://www.w3.org/2000/svg" width="328" height="48" viewBox="0 0 328 48">
  <!--
    Seat status icons. Shape-only: exactly one symbol per shape.
    Colour comes entirely from CSS `color` (currentColor) via the
    seat-icon / seat-icon (green|blue|grey) classes; there are no
    per-colour copies. Style: light tinted disc (currentColor @ 0.15)
    + thin ring (currentColor @ 0.35) + solid coloured glyph.
  -->
  <defs>
    <!-- Base glyph paths, defined once, reused by the symbols. -->
    <path id="plus-path"  d="M19,13L13,13L13,19L11,19L11,13L5,13L5,11L11,11L11,5L13,5L13,11L19,11L19,13Z"/>
    <path id="arrow-path" d="M12,4L12,1L8,5L12,9L12,6C15.31,6 18,8.69 18,12C18,13.01 17.75,13.97 17.3,14.8L18.76,16.26C19.54,15.03 20,13.57 20,12C20,7.58 16.42,4 12,4ZM12,18C8.69,18 6,15.31 6,12C6,10.99 6.25,10.03 6.7,9.2L5.24,7.74C4.46,8.97 4,10.43 4,12C4,16.42 7.58,20 12,20L12,23L16,19L12,15L12,18Z"/>
    <!-- arrow-path split into its two arcs so the hollow rebook arrows can be
         stroked at different widths (upper edge thicker than lower). -->
    <path id="arrow-upper" d="M12,4L12,1L8,5L12,9L12,6C15.31,6 18,8.69 18,12C18,13.01 17.75,13.97 17.3,14.8L18.76,16.26C19.54,15.03 20,13.57 20,12C20,7.58 16.42,4 12,4Z"/>
    <path id="arrow-lower" d="M12,18C8.69,18 6,15.31 6,12C6,10.99 6.25,10.03 6.7,9.2L5.24,7.74C4.46,8.97 4,10.43 4,12C4,16.42 7.58,20 12,20L12,23L16,19L12,15L12,18Z"/>
    <path id="head-path"  d="M12,12C14.21,12 16,10.21 16,8C16,5.79 14.21,4 12,4C9.79,4 8,5.79 8,8C8,10.21 9.79,12 12,12ZM12,14C9.33,14 4,15.34 4,18L4,20L20,20L20,18C20,15.34 14.67,14 12,14Z"/>
    <!-- Rebook figure: same head circle as #head-path, but the body's bottom is
         the disc arc itself (r=10.5) so it meets the ring with no gap below and
         without needing a clip (clip-path isn't honoured by every sprite host). -->
    <path id="figure"     d="M12,12C14.21,12 16,10.21 16,8C16,5.79 14.21,4 12,4C9.79,4 8,5.79 8,8C8,10.21 9.79,12 12,12ZM2.29,16A10.5,10.5 0 0 0 21.71,16C18,13.8 14.8,13.4 12,13.4C9.2,13.4 6,13.8 2.29,16Z"/>
    <path id="tie-path"   d="M10,14L14,14L12,17.2L10,14ZM11.5,16.5L12.5,16.5L12.8,19L12,20L11.2,19L11.5,16.5Z"/>

    <!-- Disc reused by every symbol. Opaque light fill = white base + a
         currentColor tint on top (a lighter shade of the glyph colour, not
         transparent). Ring is full currentColor, as dark as the glyph.
         The white base is the light-theme background; parameterise it when a
         dark theme lands. -->
    <g id="disc">
      <circle cx="12" cy="12" r="10.5" fill="#ffffff"/>
      <circle cx="12" cy="12" r="10.5" fill="currentColor" fill-opacity="0.2"/>
      <circle cx="12" cy="12" r="10.5" fill="none" stroke="currentColor" stroke-width="1.5"/>
    </g>

    <!-- Symbols referenced by the app (one per shape). -->
    <symbol id="icon-plus" viewBox="0 0 24 24">
      <use href="#disc"/>
      <use href="#plus-path" fill="currentColor"/>
    </symbol>

    <symbol id="icon-arrow" viewBox="0 0 24 24">
      <use href="#disc"/>
      <use href="#arrow-path" fill="currentColor"/>
    </symbol>

    <symbol id="icon-head" viewBox="0 0 24 24">
      <use href="#disc"/>
      <use href="#head-path" fill="currentColor"/>
    </symbol>

    <!-- Rebook: full-size figure (head as in #icon-head, body to the disc edge)
         with the sync arrows in front as hollow bands — an opaque light fill
         (= disc tint) so the figure is hidden where they cross, plus a
         currentColor outline. Upper arc's outline is thicker than the lower. -->
    <symbol id="icon-head-arrow" viewBox="0 0 24 24">
      <use href="#disc"/>
      <use href="#figure" fill="currentColor"/>
      <use href="#arrow-upper" fill="#ffffff"/>
      <use href="#arrow-upper" fill="currentColor" fill-opacity="0.2"/>
      <use href="#arrow-upper" fill="none" stroke="currentColor" stroke-width="0.9" stroke-linejoin="round"/>
      <use href="#arrow-lower" fill="#ffffff"/>
      <use href="#arrow-lower" fill="currentColor" fill-opacity="0.2"/>
      <use href="#arrow-lower" fill="none" stroke="currentColor" stroke-width="0.5" stroke-linejoin="round"/>
    </symbol>

    <symbol id="icon-no" viewBox="0 0 24 24">
      <use href="#disc"/>
      <!-- X = the plus glyph rotated 45°, so its stroke weight matches #icon-plus
           and the only ring is the disc's 1.5px, like every other icon (no thick
           prohibition circle). -->
      <use href="#plus-path" fill="currentColor" transform="rotate(45 12 12)"/>
    </symbol>

    <symbol id="icon-assigned" viewBox="0 0 24 24">
      <use href="#disc"/>
      <use href="#head-path" fill="currentColor"/>
      <!-- tie knocked out so it reads against the solid head.
           Literal white (not a CSS var): custom properties don't cross into
           an external <use>, and white reads on every disc colour / theme. -->
      <use href="#tie-path" fill="#ffffff"/>
    </symbol>
  </defs>

  <!-- Preview only (the app references the symbols above): one icon per shape. -->
  <use href="#icon-plus"       x="0"   y="0" width="48" height="48" color="#2e7d32"/>
  <use href="#icon-arrow"      x="56"  y="0" width="48" height="48" color="#2e7d32"/>
  <use href="#icon-head"       x="112" y="0" width="48" height="48" color="#2C3E50"/>
  <use href="#icon-head-arrow" x="168" y="0" width="48" height="48" color="#2C3E50"/>
  <use href="#icon-no"         x="224" y="0" width="48" height="48" color="#616161"/>
  <use href="#icon-assigned"   x="280" y="0" width="48" height="48" color="#616161"/>
</svg>
