<svg xmlns="http://www.w3.org/2000/svg" width="496" height="104" viewBox="0 0 496 104">
  <!--
    Seat status icons. Shape-only: exactly one symbol per shape.
    Colour comes entirely from CSS `color` (currentColor) via the
    seat-icon / seat-icon (green|blue|grey) classes; there are no
    per-colour copies. Style: light tinted disc (currentColor @ 0.15)
    + thin ring (currentColor @ 0.35) + solid coloured glyph.
  -->
  <defs>
    <!-- Base glyph paths, defined once, reused by the symbols. -->
    <path id="plus-path"  d="M19,13L13,13L13,19L11,19L11,13L5,13L5,11L11,11L11,5L13,5L13,11L19,11L19,13Z"/>
    <path id="arrow-path" d="M12,4L12,1L8,5L12,9L12,6C15.31,6 18,8.69 18,12C18,13.01 17.75,13.97 17.3,14.8L18.76,16.26C19.54,15.03 20,13.57 20,12C20,7.58 16.42,4 12,4ZM12,18C8.69,18 6,15.31 6,12C6,10.99 6.25,10.03 6.7,9.2L5.24,7.74C4.46,8.97 4,10.43 4,12C4,16.42 7.58,20 12,20L12,23L16,19L12,15L12,18Z"/>
    <!-- arrow-path split into its two arcs so the hollow rebook arrows can be
         stroked at different widths (upper edge thicker than lower). -->
    <path id="arrow-upper" d="M12,4L12,1L8,5L12,9L12,6C15.31,6 18,8.69 18,12C18,13.01 17.75,13.97 17.3,14.8L18.76,16.26C19.54,15.03 20,13.57 20,12C20,7.58 16.42,4 12,4Z"/>
    <path id="arrow-lower" d="M12,18C8.69,18 6,15.31 6,12C6,10.99 6.25,10.03 6.7,9.2L5.24,7.74C4.46,8.97 4,10.43 4,12C4,16.42 7.58,20 12,20L12,23L16,19L12,15L12,18Z"/>
    <path id="head-path"  d="M12,12C14.21,12 16,10.21 16,8C16,5.79 14.21,4 12,4C9.79,4 8,5.79 8,8C8,10.21 9.79,12 12,12ZM12,14C9.33,14 4,15.34 4,18L4,20L20,20L20,18C20,15.34 14.67,14 12,14Z"/>
    <!-- Rebook figure: same head circle as #head-path, but the body's bottom is
         the disc arc itself (r=10.5) so it meets the ring with no gap below and
         without needing a clip (clip-path isn't honoured by every sprite host). -->
    <path id="figure"     d="M12,12C14.21,12 16,10.21 16,8C16,5.79 14.21,4 12,4C9.79,4 8,5.79 8,8C8,10.21 9.79,12 12,12ZM2.29,16A10.5,10.5 0 0 0 21.71,16C18,13.8 14.8,13.4 12,13.4C9.2,13.4 6,13.8 2.29,16Z"/>
    <path id="tie-path"   d="M10,14L14,14L12,17.2L10,14ZM11.5,16.5L12.5,16.5L12.8,19L12,20L11.2,19L11.5,16.5Z"/>

    <!-- Disc reused by every symbol. Fill = the seat bg var (warp-seat-bg)
         set per status on .seat-icon (a light tint of the glyph colour; white
         for the default no-status seat). Ring + glyph are full currentColor.
         Custom properties cross an external <use>, so the knockouts below reuse
         the same var to match the disc in both themes. -->
    <g id="disc">
      <circle cx="12" cy="12" r="10.5" fill="var(--warp-seat-bg, #ffffff)"/>
      <circle cx="12" cy="12" r="10.5" fill="none" stroke="currentColor" stroke-width="1.5"/>
    </g>

    <!-- Symbols referenced by the app (one per shape). -->
    <symbol id="icon-plus" viewBox="0 0 24 24">
      <use href="#disc"/>
      <use href="#plus-path" fill="currentColor"/>
    </symbol>

    <symbol id="icon-arrow" viewBox="0 0 24 24">
      <use href="#disc"/>
      <use href="#arrow-path" fill="currentColor"/>
    </symbol>

    <symbol id="icon-head" viewBox="0 0 24 24">
      <use href="#disc"/>
      <use href="#head-path" fill="currentColor"/>
    </symbol>

    <!-- Rebook: full-size figure (head as in #icon-head, body to the disc edge)
         with the sync arrows in front as hollow bands — an opaque light fill
         (= disc tint) so the figure is hidden where they cross, plus a
         currentColor outline. Upper arc's outline is thicker than the lower. -->
    <symbol id="icon-head-arrow" viewBox="0 0 24 24">
      <use href="#disc"/>
      <use href="#figure" fill="currentColor"/>
      <use href="#arrow-upper" fill="var(--warp-seat-bg, #ffffff)"/>
      <use href="#arrow-upper" fill="currentColor" fill-opacity="0.2"/>
      <use href="#arrow-upper" fill="none" stroke="currentColor" stroke-width="0.9" stroke-linejoin="round"/>
      <use href="#arrow-lower" fill="var(--warp-seat-bg, #ffffff)"/>
      <use href="#arrow-lower" fill="currentColor" fill-opacity="0.2"/>
      <use href="#arrow-lower" fill="none" stroke="currentColor" stroke-width="0.5" stroke-linejoin="round"/>
    </symbol>

    <symbol id="icon-no" viewBox="0 0 24 24">
      <use href="#disc"/>
      <!-- X = the plus glyph rotated 45°, so its stroke weight matches #icon-plus
           and the only ring is the disc's 1.5px, like every other icon (no thick
           prohibition circle). -->
      <use href="#plus-path" fill="currentColor" transform="rotate(45 12 12)"/>
    </symbol>

    <symbol id="icon-assigned" viewBox="0 0 24 24">
      <use href="#disc"/>
      <use href="#head-path" fill="currentColor"/>
      <!-- tie knocked out so it reads against the solid head. Fills with the
           disc base var so the knockout matches the disc in both themes. -->
      <use href="#tie-path" fill="var(--warp-seat-bg, #ffffff)"/>
    </symbol>

    <!-- ===== Seat status cells. One g id=cell-NAME per visual state.
          Colours come from the :root theme vars (warp-seat-FAMILY-fg/-bg),
          which cross the external use boundary (proven by #disc). Light/dark flip
          via :root[theme=dark]. Shapes reused from the defs above; duplicated
          across colour families as needed. Added alongside the existing symbols
          and #disc, which the plan editor still uses. ===== -->

    <g id="cell-available">          <!-- plus, green -->
      <circle cx="12" cy="12" r="10.5" fill="var(--warp-seat-available-bg)"/>
      <circle cx="12" cy="12" r="10.5" fill="none" stroke="var(--warp-seat-available-fg)" stroke-width="1.5"/>
      <use href="#plus-path" fill="var(--warp-seat-available-fg)"/>
    </g>

    <g id="cell-availableAssigned">  <!-- plus, blue (assigned to you) -->
      <circle cx="12" cy="12" r="10.5" fill="var(--warp-seat-yours-bg)"/>
      <circle cx="12" cy="12" r="10.5" fill="none" stroke="var(--warp-seat-yours-fg)" stroke-width="1.5"/>
      <use href="#plus-path" fill="var(--warp-seat-yours-fg)"/>
    </g>

    <g id="cell-edited">              <!-- head, green (editor: existing seat with unsaved changes) -->
      <circle cx="12" cy="12" r="10.5" fill="var(--warp-seat-available-bg)"/>
      <circle cx="12" cy="12" r="10.5" fill="none" stroke="var(--warp-seat-available-fg)" stroke-width="1.5"/>
      <use href="#head-path" fill="var(--warp-seat-available-fg)"/>
    </g>

    <g id="cell-rebook">             <!-- arrow, green -->
      <circle cx="12" cy="12" r="10.5" fill="var(--warp-seat-available-bg)"/>
      <circle cx="12" cy="12" r="10.5" fill="none" stroke="var(--warp-seat-available-fg)" stroke-width="1.5"/>
      <use href="#arrow-path" fill="var(--warp-seat-available-fg)"/>
    </g>

    <g id="cell-rebookAssigned">      <!-- arrow, blue (assigned to you) -->
      <circle cx="12" cy="12" r="10.5" fill="var(--warp-seat-yours-bg)"/>
      <circle cx="12" cy="12" r="10.5" fill="none" stroke="var(--warp-seat-yours-fg)" stroke-width="1.5"/>
      <use href="#arrow-path" fill="var(--warp-seat-yours-fg)"/>
    </g>

    <g id="cell-yours">               <!-- head, blue (your exact booking) -->
      <circle cx="12" cy="12" r="10.5" fill="var(--warp-seat-yours-bg)"/>
      <circle cx="12" cy="12" r="10.5" fill="none" stroke="var(--warp-seat-yours-fg)" stroke-width="1.5"/>
      <use href="#head-path" fill="var(--warp-seat-yours-fg)"/>
    </g>

    <g id="cell-yoursChange">         <!-- head + sync arrows, blue (your booking, can change) -->
      <circle cx="12" cy="12" r="10.5" fill="var(--warp-seat-yours-bg)"/>
      <circle cx="12" cy="12" r="10.5" fill="none" stroke="var(--warp-seat-yours-fg)" stroke-width="1.5"/>
      <use href="#figure" fill="var(--warp-seat-yours-fg)"/>
      <use href="#arrow-upper" fill="var(--warp-seat-yours-bg)"/>
      <use href="#arrow-upper" fill="var(--warp-seat-yours-fg)" fill-opacity="0.2"/>
      <use href="#arrow-upper" fill="none" stroke="var(--warp-seat-yours-fg)" stroke-width="0.9" stroke-linejoin="round"/>
      <use href="#arrow-lower" fill="var(--warp-seat-yours-bg)"/>
      <use href="#arrow-lower" fill="var(--warp-seat-yours-fg)" fill-opacity="0.2"/>
      <use href="#arrow-lower" fill="none" stroke="var(--warp-seat-yours-fg)" stroke-width="0.5" stroke-linejoin="round"/>
    </g>

    <g id="cell-taken">               <!-- head, grey (booked by other / your unchangeable / view-only-taken) -->
      <circle cx="12" cy="12" r="10.5" fill="var(--warp-seat-unavailable-bg)"/>
      <circle cx="12" cy="12" r="10.5" fill="none" stroke="var(--warp-seat-unavailable-fg)" stroke-width="1.5"/>
      <use href="#head-path" fill="var(--warp-seat-unavailable-fg)"/>
    </g>

    <g id="cell-assigned">            <!-- head + tie knockout, grey (assigned to others) -->
      <circle cx="12" cy="12" r="10.5" fill="var(--warp-seat-unavailable-bg)"/>
      <circle cx="12" cy="12" r="10.5" fill="none" stroke="var(--warp-seat-unavailable-fg)" stroke-width="1.5"/>
      <use href="#head-path" fill="var(--warp-seat-unavailable-fg)"/>
      <use href="#tie-path" fill="var(--warp-seat-unavailable-bg)"/>
    </g>

    <g id="cell-unavailable">         <!-- no-symbol (plus rotated 45deg), grey (view-only free / disabled / no dates) -->
      <circle cx="12" cy="12" r="10.5" fill="var(--warp-seat-unavailable-bg)"/>
      <circle cx="12" cy="12" r="10.5" fill="none" stroke="var(--warp-seat-unavailable-fg)" stroke-width="1.5"/>
      <use href="#plus-path" fill="var(--warp-seat-unavailable-fg)" transform="rotate(45 12 12)"/>
    </g>
  </defs>

  <!-- Preview only (the app references the symbols above): one icon per shape. -->
  <use href="#icon-plus"       x="0"   y="0" width="48" height="48" color="#2e7d32"/>
  <use href="#icon-arrow"      x="56"  y="0" width="48" height="48" color="#2e7d32"/>
  <use href="#icon-head"       x="112" y="0" width="48" height="48" color="#2C3E50"/>
  <use href="#icon-head-arrow" x="168" y="0" width="48" height="48" color="#2C3E50"/>
  <use href="#icon-no"         x="224" y="0" width="48" height="48" color="#616161"/>
  <use href="#icon-assigned"   x="280" y="0" width="48" height="48" color="#616161"/>

  <!-- Cell preview strip (booking-view cells; colours resolve from the file's
       own :root vars, which the cells reference directly). -->
  <use href="#cell-available"         x="0"   y="56" width="48" height="48"/>
  <use href="#cell-availableAssigned" x="56"  y="56" width="48" height="48"/>
  <use href="#cell-rebook"            x="112" y="56" width="48" height="48"/>
  <use href="#cell-rebookAssigned"    x="168" y="56" width="48" height="48"/>
  <use href="#cell-yours"             x="224" y="56" width="48" height="48"/>
  <use href="#cell-yoursChange"       x="280" y="56" width="48" height="48"/>
  <use href="#cell-taken"             x="336" y="56" width="48" height="48"/>
  <use href="#cell-assigned"         x="392" y="56" width="48" height="48"/>
  <use href="#cell-unavailable"       x="448" y="56" width="48" height="48"/>
</svg>
